<?xml version="1.0" encoding="UTF-8"?>
<!DOCTYPE svg PUBLIC "-//W3C//DTD SVG 1.1//EN" "http://www.w3.org/Graphics/SVG/1.1/DTD/svg11.dtd">
<!-- Creator: CorelDRAW X7 -->
<svg xmlns="http://www.w3.org/2000/svg" xml:space="preserve" width="202.457mm" height="188.772mm" version="1.1" style="shape-rendering:geometricPrecision; text-rendering:geometricPrecision; image-rendering:optimizeQuality; fill-rule:evenodd; clip-rule:evenodd"
viewBox="0 0 3742 3489"
 xmlns:xlink="http://www.w3.org/1999/xlink">
 <defs>
  <style type="text/css">
   <![CDATA[
    .fil4 {fill:#000D44}
    .fil7 {fill:#1634E2}
    .fil5 {fill:#1B255E}
    .fil0 {fill:#5468FF}
    .fil6 {fill:#F5B58F}
    .fil1 {fill:white}
    .fil10 {fill:#5468FF;fill-opacity:0.101961}
    .fil3 {fill:#000D44;fill-opacity:0.200000}
    .fil2 {fill:#5468FF;fill-opacity:0.200000}
    .fil9 {fill:#5468FF;fill-opacity:0.501961}
    .fil8 {fill:#5468FF;fill-opacity:0.600000}
   ]]>
  </style>
 </defs>
 <g id="Camada_x0020_1">
  <metadata id="CorelCorpID_0Corel-Layer"/>
  <g id="_2394086666240">
   <path class="fil0" d="M2901 2841l-463 0 84 495c2,10 6,20 13,28 7,7 16,13 26,16l2 0c1,1 3,1 4,1 3,1 6,1 9,1l0 1 3 0 206 0c4,0 8,-1 11,-2 12,-1 24,-7 32,-16 8,-9 14,-20 15,-32l41 -341 1 -14 16 -135 0 -2zm-87 316l-47 0 4 -144 55 0 -12 144zm17 -144l46 0 -17 144 -41 0 12 -144zm-136 303l-3 -125 69 0 -4 125 -62 0zm-74 -125l67 0 3 125 -60 0 -10 -125zm6 125l-56 0c-6,-34 -12,-78 -20,-125l66 0 10 125zm-8 -159l-11 -144 76 0 3 144 -68 0zm73 0l-3 -144 78 0 -5 144 -70 0zm-4 -179l-4 -133 88 0 -4 133 -80 0zm-5 0l-78 0 -10 -133 85 0 3 133zm-83 0l-83 0 -8 -51c-8,-54 -12,-74 -13,-82l94 0 10 133zm3 35l11 144 -68 0 -7 -45c-6,-33 -11,-67 -16,-99l80 0zm-62 144l-44 0 -25 -144 47 0c6,44 14,94 22,144l0 0zm6 34c6,43 13,86 19,125l-43 0 -21 -125 45 0zm215 125l4 -125 45 0 -10 125 -39 0zm11 -338l4 -133 64 0 -11 133 -57 0zm-282 -133c2,10 10,62 22,133l-47 0 -22 -133 47 0zm350 470l-36 0 11 -124 40 0 -15 124zm40 -337l-47 0 11 -133 51 0 -15 133z"/>
   <path class="fil1" d="M3742 1526c0,-24 -30,-44 -67,-44l-3356 0c-37,0 -67,20 -67,44l0 80 247 0 0 1809 82 0 0 -1809 2814 0 0 1811 83 0 0 -1811 263 0 1 -80z"/>
   <path class="fil2" d="M3742 1526c0,-24 -30,-44 -67,-44l-3356 0c-37,0 -67,20 -67,44l0 80 247 0 0 1809 82 0 0 -1809 2814 0 0 1811 83 0 0 -1811 263 0 1 -80z"/>
   <polygon class="fil0" points="1819,1484 2173,1484 2173,546 1819,546 "/>
   <polygon class="fil3" points="1819,1484 2173,1484 2173,546 1819,546 "/>
   <path class="fil0" d="M2668 252l0 902 -343 -5 -359 -6 -113 -2 -364 -5 -219 -4 0 -880c0,-15 6,-30 17,-41 10,-10 25,-16 40,-16l1284 0c7,0 15,1 22,4 6,3 13,7 18,12 5,6 10,12 13,19 2,7 4,14 4,22l0 0z"/>
   <path class="fil3" d="M2668 252l0 902 -343 -5 -359 -6 -113 -2 -364 -5 -219 -4 0 -880c0,-15 6,-30 17,-41 10,-10 25,-16 40,-16l1284 0c7,0 15,1 22,4 6,3 13,7 18,12 5,6 10,12 13,19 2,7 4,14 4,22l0 0z"/>
   <path class="fil1" d="M2610 272l-1283 0c-2,0 -5,2 -5,5l0 797c0,3 3,5 5,5l1283 0c3,0 6,-2 6,-5l0 -797c0,-3 -3,-5 -6,-5z"/>
   <path class="fil0" d="M1270 1128l0 67c0,27 11,52 30,71 18,18 44,29 70,29l1198 0c27,0 52,-11 71,-29 18,-19 29,-44 29,-71l0 -67 -1398 0z"/>
   <path class="fil0" d="M1683 1487l584 0c9,0 17,-3 23,-9 6,-7 10,-15 10,-24 0,-8 -4,-16 -10,-23 -6,-6 -14,-9 -23,-9l-584 0c-9,0 -17,3 -23,9 -6,7 -10,15 -10,23 0,9 4,17 10,24 6,6 14,9 23,9l0 0z"/>
   <path class="fil1" d="M1585 3285c5,-1 10,-3 14,-6 0,1 0,2 0,3 1,3 1,7 1,11 -1,4 -2,7 -5,10 -2,3 -5,6 -8,8 -3,2 -7,3 -10,3 -56,7 -111,10 -167,10 -85,0 -157,-3 -179,-5 -2,0 -3,0 -5,-2 -1,-1 -2,-3 -2,-5 0,-5 1,-13 1,-22 27,1 99,4 185,4 58,0 117,-3 175,-9l0 0z"/>
   <path class="fil4" d="M1364 3187c0,0 149,5 191,23 24,10 37,43 44,69 -4,3 -9,5 -14,6 -58,6 -117,9 -175,9 -86,0 -159,-3 -185,-4 2,-25 4,-61 9,-93 44,3 87,0 130,-10l0 0z"/>
   <path class="fil1" d="M1960 3284c1,-1 2,-1 3,-1 1,2 2,4 2,6 1,2 1,5 0,8 0,3 -2,6 -3,8 -2,2 -4,4 -7,6 -2,1 -5,2 -8,3 -60,6 -121,10 -182,10 -90,0 -165,-3 -188,-4 -2,-1 -3,-1 -5,-3 -1,-1 -1,-3 -1,-5 0,-5 0,-13 1,-22 31,1 105,4 193,4 82,0 158,-7 195,-10z"/>
   <path class="fil4" d="M1717 3187c0,0 156,5 199,23 27,11 41,47 48,73 -1,0 -2,1 -3,1 -38,3 -114,10 -196,10 -88,0 -162,-3 -194,-4 2,-31 5,-62 10,-93 45,3 91,0 136,-10l0 0z"/>
   <path class="fil5" d="M902 1864c340,-10 535,70 551,175 16,106 -61,1149 -61,1149 0,0 -59,33 -158,13 0,0 -64,-347 -84,-512 -21,-165 -2,-390 -2,-390 0,0 -319,112 -511,-9 -192,-122 -17,-459 -17,-459l282 33z"/>
   <path class="fil5" d="M1247 1864c341,-10 536,70 551,175 16,106 -65,1149 -65,1149 0,0 -49,30 -154,17 0,0 -64,-351 -84,-516 -20,-165 -2,-390 -2,-390 0,0 -318,112 -510,-9 -193,-122 -17,-459 -17,-459l281 33z"/>
   <path class="fil6" d="M1108 151c22,54 37,111 44,169 0,0 30,54 31,74 1,20 -29,27 -29,27 0,0 0,107 -26,141 -27,34 -122,34 -122,34 0,0 -12,30 16,148l-266 0c0,0 31,-85 37,-219 6,-135 -57,-374 315,-374z"/>
   <path class="fil4" d="M729 117c5,-6 11,-11 18,-16 26,-19 56,-31 87,-38 42,-9 84,-11 126,-19 48,-9 95,-26 141,-42 3,-1 6,-2 9,-2 3,0 6,0 9,1 2,2 4,4 6,7 1,2 2,5 2,8 6,22 7,45 3,68l18 -16c6,20 2,42 -5,62 -7,21 -17,40 -24,60 -13,41 -12,85 -6,127 2,12 3,24 1,35 -3,12 -13,22 -24,23 -1,-14 -4,-27 -11,-39 -7,-11 -21,-19 -33,-15 -13,4 -20,17 -22,30 -3,19 1,38 11,54 4,7 10,15 9,24 -1,5 -4,9 -7,12l-29 40c-13,17 -26,35 -44,46 -21,13 -44,20 -68,20 -24,3 -47,1 -70,-5 -9,-3 -18,-7 -25,-14 -6,-6 -10,-14 -13,-22 -16,-34 -30,-70 -42,-106 -21,-69 -31,-141 -29,-214 0,-18 1,-37 4,-55 2,-5 4,-10 8,-14l0 0z"/>
   <path class="fil0" d="M708 1731c-29,-22 -61,-46 -91,-71 -69,-58 -131,-121 -138,-167 -17,-103 -4,-408 4,-552 0,-8 1,-17 1,-24 9,-136 93,-193 130,-215 19,177 49,573 53,593 4,26 41,436 41,436l0 0z"/>
   <path class="fil7" d="M711 707c0,0 16,-67 34,-84 18,-18 131,-18 167,-14 37,5 144,32 156,41 12,9 29,57 29,57l-386 0z"/>
   <path class="fil0" d="M512 884c-15,-241 244,-218 244,-218 329,-21 483,74 501,215 1,10 2,21 3,33 8,145 -36,381 -57,557 0,3 -1,6 -1,9 -7,98 45,384 45,384 0,0 -134,27 -345,27 -211,0 -297,-20 -297,-20 0,0 36,-268 0,-457 -33,-165 -85,-390 -93,-530l0 0z"/>
   <path class="fil0" d="M1077 1029l-38 -331c0,0 151,-12 217,44 25,21 81,156 112,294 -30,23 -113,62 -224,87 -28,-55 -54,-96 -67,-94l0 0z"/>
   <path class="fil6" d="M1953 1485c-6,-20 -15,-38 -27,-55 -20,-27 -80,-31 -175,-20 -6,-2 -243,-90 -347,-101 -11,-57 -32,-166 -56,-274 -30,23 -84,21 -194,47 53,127 117,325 117,325 73,106 344,88 443,78l239 0z"/>
   <path class="fil1" d="M259 3425c3,1 7,1 10,1 4,-1 7,-2 10,-4 3,-2 5,-4 7,-7 2,-3 4,-6 4,-10l312 -1111 -92 -27 -269 1124c-2,7 -1,14 2,20 4,7 9,12 16,14l0 0z"/>
   <path class="fil8" d="M259 3425c3,1 7,1 10,1 4,-1 7,-2 10,-4 3,-2 5,-4 7,-7 2,-3 4,-6 4,-10l312 -1111 -92 -27 -269 1124c-2,7 -1,14 2,20 4,7 9,12 16,14l0 0z"/>
   <path class="fil1" d="M1566 3425c-4,1 -7,1 -10,1 -4,-1 -7,-2 -10,-4 -3,-2 -6,-4 -8,-7 -1,-3 -3,-6 -4,-10l-311 -1111 92 -27 269 1123c2,7 1,15 -2,21 -4,7 -9,12 -16,14l0 0z"/>
   <path class="fil8" d="M1566 3425c-4,1 -7,1 -10,1 -4,-1 -7,-2 -10,-4 -3,-2 -6,-4 -8,-7 -1,-3 -3,-6 -4,-10l-311 -1111 92 -27 269 1123c2,7 1,15 -2,21 -4,7 -9,12 -16,14l0 0z"/>
   <path class="fil1" d="M1184 3426c-3,0 -7,0 -10,-1 -3,-1 -6,-3 -9,-5 -3,-2 -5,-5 -7,-8 -1,-3 -2,-6 -3,-10l-184 -1143 94 -16 141 1151c1,7 0,14 -4,20 -5,6 -11,10 -18,12z"/>
   <path class="fil8" d="M1184 3426c-3,0 -7,0 -10,-1 -3,-1 -6,-3 -9,-5 -3,-2 -5,-5 -7,-8 -1,-3 -2,-6 -3,-10l-184 -1143 94 -16 141 1151c1,7 0,14 -4,20 -5,6 -11,10 -18,12z"/>
   <path class="fil1" d="M624 3426c3,0 7,0 10,-1 4,-1 7,-3 9,-5 3,-2 5,-5 7,-8 2,-3 3,-6 3,-10l184 -1143 -94 -16 -141 1151c-1,7 1,14 5,20 4,6 10,10 17,12l0 0z"/>
   <path class="fil8" d="M624 3426c3,0 7,0 10,-1 4,-1 7,-3 9,-5 3,-2 5,-5 7,-8 2,-3 3,-6 3,-10l184 -1143 -94 -16 -141 1151c-1,7 1,14 5,20 4,6 10,10 17,12l0 0z"/>
   <path class="fil1" d="M168 1145l0 1c1,5 2,10 3,16 2,9 4,18 7,27 16,52 42,123 48,260 5,113 -15,267 -6,407 8,140 33,336 179,441 29,21 60,37 93,49 30,10 60,18 90,24 48,9 96,14 145,17 30,1 61,2 91,2 61,1 120,-1 172,-2l39 -1c15,-1 33,-2 52,-3 46,-4 102,-10 160,-19 30,-4 61,-10 92,-15 172,-31 341,-76 363,-116 7,-12 10,-26 8,-39 0,-2 -1,-4 -1,-6 -2,-4 -4,-8 -6,-12 -2,-3 -4,-5 -6,-8 -9,-8 -20,-14 -32,-17 -11,-3 -23,-3 -35,0 -73,19 -291,61 -389,-64 -119,-150 -67,-138 -119,-505 -48,-347 -145,-417 -324,-486 -154,-60 -382,-51 -506,-33 -24,3 -48,8 -71,14 -12,3 -23,10 -31,20 -8,9 -14,21 -16,33 0,5 -1,10 0,15l0 0z"/>
   <path class="fil9" d="M168 1145l0 1c1,5 2,10 3,16 2,9 4,18 7,27 16,52 42,123 48,260 5,113 -15,267 -6,407 8,140 33,336 179,441 29,21 60,37 93,49 30,10 60,18 90,24 48,9 96,14 145,17 30,1 61,2 91,2 61,1 120,-1 172,-2l39 -1c15,-1 33,-2 52,-3 46,-4 102,-10 160,-19 30,-4 61,-10 92,-15 172,-31 341,-76 363,-116 7,-12 10,-26 8,-39 0,-2 -1,-4 -1,-6 -2,-4 -4,-8 -6,-12 -2,-3 -4,-5 -6,-8 -9,-8 -20,-14 -32,-17 -11,-3 -23,-3 -35,0 -73,19 -291,61 -389,-64 -119,-150 -67,-138 -119,-505 -48,-347 -145,-417 -324,-486 -154,-60 -382,-51 -506,-33 -24,3 -48,8 -71,14 -12,3 -23,10 -31,20 -8,9 -14,21 -16,33 0,5 -1,10 0,15l0 0z"/>
   <path class="fil0" d="M168 1145l0 1c1,5 2,10 3,16 2,9 4,18 7,27 16,52 42,123 48,260 5,113 -15,267 -6,407 8,140 33,336 179,441 29,21 60,37 93,49 30,10 60,18 90,24 48,9 96,14 145,17 30,1 61,2 91,2 61,1 120,-1 172,-2l39 -1c15,-1 33,-2 52,-3 46,-4 102,-10 160,-19 30,-4 61,-10 92,-15 172,-31 341,-76 363,-116 7,-12 10,-26 8,-39 0,-2 -1,-4 -1,-6 -2,-4 -4,-8 -6,-12 -4,-5 -85,29 -92,32 -197,76 -467,24 -500,-218 -28,-205 -20,-404 -94,-602 -147,-391 -727,-284 -843,-258 -1,5 -1,10 0,15l0 0z"/>
   <path class="fil0" d="M1390 999c-2,0 12,-144 30,-322 18,-177 35,-321 36,-320 2,0 -11,144 -29,321 -19,177 -35,321 -37,321z"/>
   <path class="fil0" d="M1567 392c37,0 68,-2 68,-3 0,-2 -31,-4 -68,-4 -37,0 -67,2 -67,4 0,1 30,3 67,3z"/>
   <path class="fil0" d="M2208 389c0,1 -120,3 -268,3 -149,0 -269,-2 -269,-3 0,-2 120,-4 269,-4 148,0 268,2 268,4z"/>
   <path class="fil0" d="M1551 732c38,0 68,-2 68,-3 0,-2 -30,-4 -68,-4 -37,0 -67,2 -67,4 0,1 30,3 67,3z"/>
   <path class="fil0" d="M1924 732c148,0 268,-2 268,-3 0,-2 -120,-4 -268,-4 -148,0 -269,2 -269,4 0,1 121,3 269,3z"/>
   <path class="fil0" d="M2009 885c0,2 -120,4 -268,4 -148,0 -269,-2 -269,-4 0,-2 121,-3 269,-3 148,0 268,2 268,3z"/>
   <path class="fil0" d="M1599 488c53,0 95,-2 95,-3 0,-2 -42,-4 -95,-4 -52,0 -95,2 -95,4 0,1 43,3 95,3z"/>
   <path class="fil0" d="M1594 629c53,0 95,-2 95,-4 0,-2 -42,-3 -95,-3 -52,0 -94,1 -94,3 0,2 42,4 94,4z"/>
   <path class="fil0" d="M1755 830c52,0 95,-2 95,-4 0,-1 -43,-3 -95,-3 -53,0 -95,2 -95,3 0,2 42,4 95,4z"/>
   <path class="fil0" d="M2142 488c134,0 242,-2 242,-3 0,-2 -108,-4 -242,-4 -134,0 -242,2 -242,4 0,1 108,3 242,3z"/>
   <path class="fil0" d="M1992 637c134,0 243,-2 243,-4 0,-1 -109,-3 -243,-3 -134,0 -242,2 -242,3 0,2 108,4 242,4z"/>
   <path class="fil0" d="M2159 830c134,0 242,-2 242,-4 0,-1 -108,-3 -242,-3 -134,0 -242,2 -242,3 0,2 108,4 242,4z"/>
   <path class="fil0" d="M1717 970c133,0 242,-2 242,-4 0,-2 -109,-3 -242,-3 -134,0 -243,1 -243,3 0,2 109,4 243,4z"/>
   <path class="fil0" d="M2253 970c133,0 242,-2 242,-4 0,-2 -109,-3 -242,-3 -134,0 -243,1 -243,3 0,2 109,4 243,4z"/>
   <path class="fil0" d="M1717 1026c133,0 242,-2 242,-4 0,-2 -109,-3 -242,-3 -134,0 -243,1 -243,3 0,2 109,4 243,4z"/>
   <path class="fil0" d="M1740 528c134,0 242,-1 242,-3 0,-2 -108,-3 -242,-3 -134,0 -242,1 -242,3 0,2 108,3 242,3z"/>
   <path class="fil0" d="M1791 488c34,0 62,-1 62,-3 0,-2 -28,-3 -62,-3 -35,0 -63,1 -63,3 0,2 28,3 63,3z"/>
   <path class="fil0" d="M1541 778c34,0 62,-1 62,-3 0,-2 -28,-4 -62,-4 -35,0 -63,2 -63,4 0,2 28,3 63,3z"/>
   <path class="fil0" d="M1538 830c34,0 62,-2 62,-4 0,-1 -28,-3 -62,-3 -35,0 -63,2 -63,3 0,2 28,4 63,4z"/>
   <path class="fil0" d="M2551 323c0,2 -172,4 -544,4 -373,0 -609,-2 -609,-4 0,-2 237,-3 609,-3 373,0 544,1 544,3z"/>
   <path class="fil0" d="M3563 1481l77 -568c1,-4 1,-8 0,-12 -1,-4 -2,-7 -5,-11 -2,-3 -5,-6 -9,-7 -4,-2 -8,-3 -12,-3l-646 0c-6,0 -12,2 -17,6 -4,3 -8,8 -9,14l-74 581 695 0z"/>
   <path class="fil0" d="M2942 900l-72 537 -360 0 0 45 1062 0 68 -569c1,-4 2,-8 1,-12 -1,-4 -3,-7 -5,-10 -3,-4 -6,-6 -10,-8 -3,-2 -7,-3 -11,-3l-648 0c-6,0 -11,2 -16,6 -5,3 -8,8 -9,14z"/>
   <path class="fil3" d="M2942 900l-72 537 -360 0 0 45 1062 0 68 -569c1,-4 2,-8 1,-12 -1,-4 -3,-7 -5,-10 -3,-4 -6,-6 -10,-8 -3,-2 -7,-3 -11,-3l-648 0c-6,0 -11,2 -16,6 -5,3 -8,8 -9,14z"/>
   <polygon class="fil1" points="3550,1439 2903,1439 2965,904 3616,904 "/>
   <polygon class="fil10" points="3550,1439 2903,1439 2965,904 3616,904 "/>
   <path class="fil0" d="M2983 1121c10,-91 17,-165 16,-165 -1,0 -9,73 -19,164 -9,91 -16,165 -15,165 1,0 9,-73 18,-164z"/>
   <path class="fil0" d="M3056 974c19,0 34,-1 34,-2 0,-1 -15,-1 -34,-1 -19,0 -35,0 -35,1 0,1 16,2 35,2z"/>
   <path class="fil0" d="M3247 974c76,0 137,-1 137,-2 0,-1 -61,-1 -137,-1 -76,0 -138,0 -138,1 0,1 62,2 138,2z"/>
   <path class="fil0" d="M3048 1148c19,0 34,0 34,-1 0,-1 -15,-2 -34,-2 -19,0 -35,1 -35,2 0,1 16,1 35,1z"/>
   <path class="fil0" d="M3239 1148c76,0 137,0 137,-1 0,-1 -61,-2 -137,-2 -76,0 -138,1 -138,2 0,1 62,1 138,1z"/>
   <path class="fil0" d="M3145 1229c76,0 137,-1 137,-2 0,-1 -61,-2 -137,-2 -76,0 -138,1 -138,2 0,1 62,2 138,2z"/>
   <path class="fil0" d="M3072 1023c27,0 49,0 49,-1 0,-1 -22,-2 -49,-2 -27,0 -48,1 -48,2 0,1 21,1 48,1z"/>
   <path class="fil0" d="M3070 1095c27,0 48,0 48,-1 0,-1 -21,-2 -48,-2 -27,0 -49,1 -49,2 0,1 22,1 49,1z"/>
   <path class="fil0" d="M3152 1199c27,0 49,-1 49,-2 0,-1 -22,-2 -49,-2 -27,0 -49,1 -49,2 0,1 22,2 49,2z"/>
   <path class="fil0" d="M3350 1023c69,0 125,0 125,-1 0,-1 -56,-2 -125,-2 -68,0 -124,1 -124,2 0,1 56,1 124,1z"/>
   <path class="fil0" d="M3274 1100c68,0 124,-1 124,-2 0,-1 -56,-2 -124,-2 -69,0 -125,1 -125,2 0,1 56,2 125,2z"/>
   <path class="fil0" d="M3359 1199c69,0 124,-1 124,-2 0,-1 -55,-2 -124,-2 -68,0 -124,1 -124,2 0,1 56,2 124,2z"/>
   <path class="fil0" d="M3132 1287c69,0 125,-1 125,-2 0,-1 -56,-1 -125,-1 -68,0 -124,0 -124,1 0,1 56,2 124,2z"/>
   <path class="fil0" d="M3407 1287c69,0 124,-1 124,-2 0,-1 -55,-1 -124,-1 -69,0 -124,0 -124,1 0,1 55,2 124,2z"/>
   <path class="fil0" d="M3407 1346c69,0 124,-1 124,-2 0,-1 -55,-2 -124,-2 -69,0 -124,1 -124,2 0,1 55,2 124,2z"/>
   <path class="fil0" d="M3146 1365c69,0 124,-1 124,-1 0,-1 -55,-2 -124,-2 -69,0 -124,1 -124,2 0,0 55,1 124,1z"/>
   <path class="fil0" d="M3407 1385c69,0 124,-1 124,-2 0,-1 -55,-1 -124,-1 -69,0 -124,0 -124,1 0,1 55,2 124,2z"/>
   <path class="fil0" d="M3132 1316c69,0 125,-1 125,-2 0,-1 -56,-2 -125,-2 -68,0 -124,1 -124,2 0,1 56,2 124,2z"/>
   <path class="fil0" d="M3144 1044c69,0 125,-1 125,-2 0,-1 -56,-1 -125,-1 -68,0 -124,0 -124,1 0,1 56,2 124,2z"/>
   <path class="fil0" d="M3170 1024c18,0 32,-1 32,-2 0,-1 -14,-2 -32,-2 -17,0 -32,1 -32,2 0,1 15,2 32,2z"/>
   <path class="fil0" d="M3042 1172c18,0 32,-1 32,-2 0,-1 -14,-1 -32,-1 -18,0 -32,0 -32,1 0,1 14,2 32,2z"/>
   <path class="fil0" d="M3041 1199c17,0 31,-1 31,-2 0,-1 -14,-2 -31,-2 -18,0 -32,1 -32,2 0,1 14,2 32,2z"/>
   <path class="fil0" d="M3592 929c0,1 -55,2 -246,2 -191,0 -346,-1 -346,-2 0,-1 155,-2 346,-2 192,0 246,1 246,2z"/>
   <polygon class="fil2" points="3742,3417 0,3417 0,3489 3742,3489 "/>
  </g>
 </g>
</svg>
